<?xml version="1.0" standalone="no"?>
<!DOCTYPE svg PUBLIC "-//W3C//DTD SVG 20010904//EN"
 "http://www.w3.org/TR/2001/REC-SVG-20010904/DTD/svg10.dtd">
<svg version="1.0" xmlns="http://www.w3.org/2000/svg"
 width="16.000000pt" height="16.000000pt" viewBox="0 0 16.000000 16.000000"
 preserveAspectRatio="xMidYMid meet">
<metadata>
Created by potrace 1.11, written by Peter Selinger 2001-2013
</metadata>
<g transform="translate(0.000000,16.000000) scale(0.001519,-0.001519)"
fill="#000000" stroke="none">
<path d="M5075 10520 c-354 -25 -690 -151 -975 -363 -75 -56 -241 -218 -305
-298 -96 -119 -194 -286 -225 -384 -7 -22 -16 -44 -20 -50 -13 -17 -58 -216
-70 -305 -13 -108 -13 -336 1 -476 46 -478 271 -1052 623 -1587 69 -105 206
-292 327 -446 l42 -54 -164 7 c-490 19 -670 40 -745 87 -73 45 -137 140 -245
367 -59 123 -82 162 -96 162 -46 0 -133 -158 -275 -500 -83 -200 -111 -304
-116 -432 -3 -100 -1 -126 17 -181 42 -126 142 -258 279 -368 151 -121 244
-171 366 -193 93 -18 146 -14 146 10 0 8 -3 14 -7 14 -5 0 -28 32 -53 71 -47
74 -76 112 -184 244 -81 98 -145 219 -130 243 28 45 142 66 304 57 507 -28
1015 -178 1206 -358 35 -33 64 -63 64 -68 0 -5 -32 -43 -71 -84 -40 -42 -70
-77 -68 -79 2 -2 27 -15 54 -29 72 -36 92 -63 115 -152 42 -164 15 -551 -80
-1130 -11 -66 -31 -190 -44 -275 -14 -85 -50 -303 -80 -485 -100 -597 -131
-860 -141 -1195 -3 -118 -12 -303 -21 -410 -19 -256 -26 -1852 -7 -1871 13
-13 39 23 98 141 91 180 164 262 290 324 267 133 634 105 861 -64 59 -44 121
-133 205 -295 32 -61 64 -110 71 -110 22 0 26 151 21 925 -3 521 -8 793 -19
935 -8 110 -19 322 -24 470 -11 340 -45 614 -167 1325 -19 113 -45 277 -58
365 -14 88 -27 169 -29 181 -10 38 -65 428 -80 564 -31 275 -37 399 -25 500
20 167 48 220 141 260 32 14 46 25 41 33 -3 7 -34 40 -67 75 -34 35 -62 67
-64 72 -5 15 70 90 131 132 166 113 445 206 787 262 294 49 530 52 619 9 30
-15 36 -23 34 -47 -3 -45 -75 -161 -176 -283 -122 -148 -203 -273 -185 -284
19 -13 57 -11 144 7 139 28 300 128 449 279 101 102 156 187 186 288 30 96 24
247 -15 372 -36 113 -115 311 -195 483 -64 138 -79 165 -120 220 -44 58 -55
48 -140 -130 -146 -305 -210 -379 -351 -407 -118 -23 -653 -58 -756 -49 l-42
3 80 100 c357 451 624 928 773 1380 152 459 188 910 100 1258 -155 612 -752
1112 -1435 1201 -141 18 -371 25 -505 16z m330 -90 c606 -44 1139 -368 1399
-851 104 -193 166 -453 166 -695 0 -112 -29 -380 -50 -464 -5 -19 -18 -73 -29
-120 -138 -555 -517 -1240 -969 -1748 -51 -57 -62 -76 -51 -82 32 -20 766 14
981 45 54 8 115 23 136 34 88 45 216 214 293 389 18 39 35 72 39 72 7 0 71
-133 135 -285 100 -235 155 -413 155 -503 0 -62 -30 -160 -70 -230 -37 -63
-144 -178 -220 -237 -101 -78 -240 -154 -240 -131 0 3 26 36 58 73 204 239
262 368 202 453 -64 91 -269 109 -665 59 -191 -23 -393 -69 -564 -126 -243
-82 -396 -176 -493 -305 -53 -71 -54 -69 20 -149 l49 -53 -31 -16 c-41 -20
-83 -102 -97 -188 -14 -91 -12 -366 5 -537 23 -230 94 -706 181 -1210 123
-723 175 -1152 175 -1470 0 -71 7 -230 15 -353 9 -132 15 -373 14 -595 0 -204
3 -493 6 -642 l6 -270 -22 39 c-11 21 -53 71 -93 110 -121 121 -260 179 -478
198 -320 29 -576 -55 -728 -238 -22 -27 -47 -63 -55 -81 -9 -18 -17 -33 -18
-33 -1 0 1 91 4 202 4 112 8 417 8 678 1 261 6 522 11 580 5 58 14 249 20 425
12 369 50 723 125 1155 17 94 69 407 90 540 139 868 149 954 150 1265 l0 250
-28 72 c-26 66 -56 104 -90 116 -7 2 6 24 32 53 69 78 71 85 25 151 -159 231
-639 405 -1249 454 -312 25 -465 -12 -494 -117 -23 -83 47 -214 222 -418 33
-39 55 -72 49 -74 -31 -10 -244 133 -344 232 -106 104 -178 255 -178 372 0 79
33 200 102 374 54 135 52 130 131 303 l54 117 56 -112 c75 -151 124 -224 202
-297 73 -68 113 -84 255 -100 254 -30 908 -56 938 -37 9 5 -4 26 -48 76 -424
478 -782 1100 -935 1625 -15 50 -33 111 -40 136 -45 148 -79 446 -72 630 9
249 50 417 153 620 218 430 654 738 1193 844 161 32 300 39 496 25z"/>
<path d="M5110 10379 c-457 -57 -811 -217 -1085 -493 -220 -221 -348 -478
-401 -806 -37 -230 1 -548 106 -890 165 -540 511 -1138 933 -1612 62 -71 73
-110 39 -141 -47 -43 -970 -3 -1152 49 -48 14 -67 28 -145 107 -68 69 -102
115 -140 184 -28 51 -53 93 -57 93 -24 1 -202 -457 -229 -589 -15 -72 -4 -131
43 -225 33 -65 120 -181 143 -190 21 -8 19 1 -15 68 -26 51 -30 69 -30 142 0
82 1 85 35 123 19 21 59 49 88 62 50 23 62 24 267 24 273 0 406 -17 745 -94
272 -62 498 -167 622 -290 95 -94 123 -136 123 -186 0 -39 -23 -85 -55 -107
-7 -5 -6 -13 3 -25 30 -43 62 -123 71 -183 16 -95 13 -393 -4 -576 -27 -276
-47 -420 -141 -984 -25 -151 -52 -315 -59 -365 -8 -49 -19 -115 -25 -145 -13
-64 -64 -415 -85 -580 -27 -206 -42 -412 -44 -580 -1 -91 -6 -219 -11 -285
-16 -192 -20 -388 -23 -907 -2 -352 1 -488 9 -488 6 0 19 9 30 21 72 79 231
151 387 175 125 19 366 14 477 -10 98 -22 243 -93 307 -151 30 -26 54 -41 58
-35 3 5 4 14 1 19 -3 5 -6 265 -7 577 -1 313 -5 605 -9 649 -5 44 -11 186 -15
315 -14 504 -61 893 -215 1765 -10 61 -27 162 -36 225 -9 63 -18 118 -20 121
-5 8 -68 468 -86 629 -7 63 -13 221 -13 350 0 262 10 332 56 406 16 24 29 47
29 49 0 3 -16 25 -35 51 -20 26 -35 57 -35 73 0 63 140 215 268 290 183 109
463 194 817 248 142 22 206 26 395 27 250 1 278 -4 349 -65 52 -46 60 -66 61
-146 0 -62 -4 -80 -34 -137 -19 -36 -31 -68 -26 -71 9 -6 64 53 107 115 79
117 107 212 88 305 -14 64 -63 223 -75 240 -3 6 -15 33 -25 60 -10 28 -28 75
-42 105 -13 30 -36 83 -51 117 -15 34 -30 63 -34 63 -4 0 -25 -34 -48 -75 -96
-175 -225 -299 -328 -316 -203 -36 -567 -59 -918 -59 -172 0 -193 2 -207 18
-26 28 -20 54 21 99 106 116 332 409 433 563 330 502 542 1003 624 1475 23
129 30 361 16 481 -75 619 -530 1099 -1206 1273 -180 47 -438 69 -585 50z
m460 -263 c190 -35 397 -123 550 -236 187 -138 365 -355 440 -537 11 -26 24
-55 29 -64 5 -9 22 -65 38 -125 26 -103 28 -121 27 -304 -2 -540 -161 -1043
-492 -1555 -175 -270 -502 -629 -650 -712 -62 -36 -98 -41 -128 -19 -18 13
-19 27 -18 188 1 272 38 384 170 528 l54 58 -49 35 c-94 68 -204 227 -246 355
-9 28 -22 52 -29 52 -7 0 -19 -19 -26 -42 -16 -56 -64 -150 -110 -219 -38 -55
-153 -169 -171 -169 -21 0 -6 -26 49 -84 117 -126 151 -230 159 -487 7 -210 4
-219 -65 -219 -33 0 -61 8 -94 28 -106 61 -342 304 -507 522 -410 540 -622
1131 -625 1740 -1 183 1 201 27 305 37 140 124 321 212 437 240 316 569 500
970 542 83 9 403 -3 485 -18z m-605 -3596 c3 -5 -2 -10 -11 -10 -10 0 -32 -5
-51 -12 -37 -13 -52 -6 -33 17 14 17 85 21 95 5z m683 -15 c2 -2 -12 -4 -31
-7 -31 -3 -33 -2 -24 13 9 14 15 15 31 7 12 -6 22 -12 24 -13z m-818 1 c0 -2
-7 -7 -16 -10 -8 -3 -12 -2 -9 4 6 10 25 14 25 6z m208 -36 c6 -16 7 -30 3
-30 -4 0 -12 16 -18 35 -13 42 1 38 15 -5z m497 -46 c88 -88 102 -118 63 -133
-20 -7 -26 -3 -42 25 -11 19 -29 37 -40 40 -33 10 -56 35 -56 61 0 36 -42 73
-84 73 -19 0 -41 -7 -50 -15 -31 -31 -96 -44 -126 -25 -13 9 -13 11 0 20 8 5
29 7 45 5 18 -3 46 2 70 14 22 11 61 20 88 20 47 1 49 0 132 -85z m203 13 c7
-15 10 -37 6 -49 -6 -20 -7 -20 -20 8 -7 16 -21 40 -31 52 -16 23 -16 24 8 20
14 -2 29 -14 37 -31z m-920 -1 c-2 -18 -8 -23 -24 -22 l-23 1 21 23 c27 28 28
27 26 -2z m592 4 c11 -11 20 -28 20 -39 0 -10 7 -24 15 -31 8 -7 15 -26 15
-42 0 -26 -2 -29 -15 -18 -8 7 -12 16 -9 21 11 18 -9 50 -52 83 -27 21 -40 36
-32 39 24 10 38 7 58 -13z m-467 3 c-7 -2 -19 -2 -25 0 -7 3 -2 5 12 5 14 0
19 -2 13 -5z m87 -49 c0 -24 -17 -15 -22 11 -4 20 -3 23 8 14 8 -6 14 -18 14
-25z m126 5 c-14 -11 -26 -25 -26 -30 0 -5 -9 -20 -21 -32 -14 -15 -19 -32
-17 -54 3 -26 0 -33 -13 -33 -30 0 -33 -21 -6 -44 30 -25 54 -68 36 -64 -20 5
-20 -17 1 -40 34 -36 -3 -27 -39 10 -50 51 -54 85 -20 170 15 40 28 81 29 91
0 11 8 17 24 17 13 0 29 7 36 15 7 8 19 15 28 15 9 0 6 -7 -12 -21z m153 17
c-7 -7 -113 -46 -116 -42 -8 7 26 26 63 35 47 11 59 12 53 7z m-329 -17 c0
-20 -21 -49 -35 -49 -19 0 -19 5 1 35 17 26 34 33 34 14z m690 -24 c0 -5 -5
-3 -10 5 -5 8 -10 20 -10 25 0 6 5 3 10 -5 5 -8 10 -19 10 -25z m-767 -10 c-3
-9 -8 -14 -10 -11 -3 3 -2 9 2 15 9 16 15 13 8 -4z m-153 -5 c12 -7 12 -10 1
-10 -7 0 -27 -12 -44 -26 -22 -19 -33 -22 -36 -13 -4 12 42 59 57 59 4 0 14
-5 22 -10z m88 -35 c-3 -3 -13 7 -23 22 l-17 28 23 -22 c12 -12 20 -25 17 -28z
m497 25 c3 -6 -1 -7 -9 -4 -18 7 -21 14 -7 14 6 0 13 -4 16 -10z m711 -19 c49
-28 50 -29 29 -45 -11 -9 -29 -16 -39 -16 -20 0 -20 0 0 14 25 19 9 34 -17 17
-12 -7 -22 -11 -23 -9 -1 2 -6 17 -12 34 -11 32 -11 32 16 24 15 -4 36 -13 46
-19z m-1437 -3 c-13 -13 -25 -20 -27 -15 -2 4 -11 7 -19 7 -10 0 -14 -6 -10
-20 5 -21 -16 -29 -28 -10 -5 8 -11 8 -20 0 -9 -7 -16 -6 -24 4 -10 11 -5 18
26 34 21 11 58 20 82 21 l44 1 -24 -22z m1298 -5 c-8 -7 -37 9 -31 19 3 5 12
4 20 -3 8 -6 13 -14 11 -16z m-877 10 c0 -4 -5 -21 -12 -39 -8 -24 -19 -34
-37 -36 -30 -4 -41 -28 -12 -28 15 0 21 -6 21 -22 0 -13 9 -42 19 -65 19 -40
19 -42 1 -58 -21 -19 -20 -19 -72 14 -40 24 -46 44 -23 75 8 11 21 43 30 72
15 53 47 94 72 94 7 0 13 -3 13 -7z m704 -14 c-10 -11 -28 -25 -39 -31 -11 -5
-4 4 15 21 41 36 51 40 24 10z m-202 -73 c3 -37 9 -70 12 -73 3 -3 -4 -23 -14
-44 -12 -23 -20 -58 -20 -89 0 -45 -2 -50 -22 -50 -35 0 -56 16 -40 32 15 15
16 63 0 88 -10 16 -9 23 11 44 13 14 21 32 18 40 -3 8 1 20 9 27 11 9 13 23 8
57 -6 39 -5 44 12 40 16 -3 20 -16 26 -72z m276 44 c-7 -10 -14 -17 -17 -15
-4 4 18 35 25 35 2 0 -1 -9 -8 -20z m-1353 -10 c4 -6 -6 -10 -22 -9 -25 0 -26
1 -8 9 11 5 21 9 22 9 1 1 5 -3 8 -9z m405 -40 c0 -9 -6 -25 -14 -35 -13 -18
-14 -15 -13 33 2 44 4 50 15 35 6 -9 12 -24 12 -33z m501 27 c-10 -9 -11 -8
-5 6 3 10 9 15 12 12 3 -3 0 -11 -7 -18z m90 -30 c-6 -6 -11 -21 -11 -33 0
-13 -4 -25 -8 -28 -10 -6 3 88 15 106 5 9 9 6 11 -11 2 -13 -1 -28 -7 -34z
m512 15 c8 -42 -5 -50 -19 -11 -16 45 -16 49 0 43 8 -3 16 -17 19 -32z m-1163
-29 c-15 -32 -25 -16 -15 24 4 19 9 23 17 15 9 -9 8 -19 -2 -39z m497 0 c-14
-15 -32 -23 -43 -21 -15 4 -12 9 19 27 20 13 37 28 38 34 0 7 3 6 6 -2 3 -7
-6 -24 -20 -38z m460 11 c1 -21 11 -50 23 -66 18 -25 20 -32 9 -39 -24 -14 4
-33 29 -20 11 6 24 11 29 11 4 -1 -8 -9 -27 -20 -28 -15 -110 -28 -110 -17 0
1 4 17 10 36 6 24 5 44 -4 72 -13 38 -13 40 13 59 14 11 26 20 27 20 0 0 0
-16 1 -36z m-1099 -4 c10 -27 9 -28 -7 -18 -11 7 -16 19 -13 30 6 24 8 23 20
-12z m-87 -4 c-13 -15 -6 -40 8 -32 4 3 12 -4 19 -14 11 -18 9 -19 -21 -14
-65 11 -74 14 -95 32 -24 21 -13 42 22 42 16 0 17 -3 8 -12 -7 -7 -12 -16 -12
-20 0 -15 17 -8 45 18 28 26 47 26 26 0z m326 2 c-3 -8 -6 -5 -6 6 -1 11 2 17
5 13 3 -3 4 -12 1 -19z m293 -3 c14 -19 14 -19 -2 -6 -10 7 -18 18 -18 24 0 6
1 8 3 6 1 -2 9 -13 17 -24z m469 -9 c26 -42 27 -86 1 -118 -10 -14 -29 -55
-41 -92 -12 -37 -30 -71 -39 -76 -18 -10 -104 13 -125 32 -5 5 3 4 19 -2 21
-8 32 -7 45 2 27 22 31 31 31 86 0 54 23 92 55 92 8 0 15 7 15 15 0 8 -9 15
-19 15 -12 0 -23 11 -29 30 -9 24 -8 31 6 40 33 19 60 11 81 -24z m455 25 c17
-6 17 -8 3 -14 -8 -3 -21 1 -27 9 -13 15 -6 17 24 5z m-249 -31 c8 -13 -1 -13
-26 0 -10 6 -19 15 -19 21 0 11 35 -5 45 -21z m183 -13 c-18 -5 -39 -13 -45
-19 -16 -13 -16 -6 -2 26 7 14 17 22 25 19 8 -3 14 1 14 7 0 9 7 6 21 -6 l21
-19 -34 -8z m-678 -72 c-12 -19 -25 -35 -29 -35 -9 0 18 85 34 110 22 33 16
-41 -5 -75z m459 60 c16 -8 32 -11 36 -7 5 4 5 1 1 -5 -10 -18 -30 -16 -57 7
-28 23 -19 26 20 5z m-1113 -14 c5 -5 23 -11 39 -14 l30 -4 -31 -2 c-16 0 -39
6 -50 14 -10 8 -14 15 -8 15 5 0 14 -4 20 -9z m574 -6 c-7 -8 -22 -15 -34 -15
-17 1 -16 3 9 15 39 18 40 18 25 0z m640 -5 c-8 -5 -19 -10 -25 -10 -5 0 -3 5
5 10 8 5 20 10 25 10 6 0 3 -5 -5 -10z m-1047 -75 c17 -12 19 -17 9 -27 -9 -9
-24 -6 -67 15 -31 15 -68 27 -83 28 -19 1 -11 6 32 19 32 10 64 24 70 30 8 8
12 3 14 -19 2 -17 13 -37 25 -46z m312 54 c27 -16 46 -20 75 -16 45 6 44 7 29
-27 -16 -33 -58 -42 -101 -20 -42 21 -37 16 -48 53 -10 37 -3 38 45 10z m-155
-89 c-27 -38 -23 -81 8 -95 12 -5 22 -16 22 -24 0 -8 7 -11 20 -8 14 3 27 -3
41 -21 32 -41 71 -63 99 -57 26 6 26 5 20 -41 -7 -64 -26 -74 -82 -47 -24 12
-58 24 -76 28 -22 4 -37 16 -48 36 -8 17 -39 46 -69 65 -31 20 -57 44 -60 57
-8 32 17 103 36 98 7 -2 21 -5 30 -8 9 -3 29 7 45 21 38 33 40 32 14 -4z m377
-18 c-8 -9 -18 -27 -22 -40 -4 -14 -24 -31 -48 -43 -23 -11 -57 -30 -76 -44
-19 -14 -43 -25 -53 -25 -10 0 -41 23 -69 50 -27 28 -58 50 -69 50 -28 0 -34
18 -16 45 20 30 33 31 54 5 12 -14 34 -22 77 -26 56 -6 66 -4 116 25 31 17 65
31 77 31 11 0 24 6 29 13 5 9 9 7 11 -6 2 -10 -3 -26 -11 -35z m13 -90 c0 -5
18 -16 40 -25 34 -13 40 -20 40 -44 0 -22 -13 -39 -61 -80 -33 -29 -68 -53
-77 -53 -10 1 -32 14 -51 30 -31 26 -33 32 -26 67 8 47 27 69 71 83 19 7 34
16 34 21 0 5 7 9 15 9 8 0 15 -4 15 -8z m-121 -264 c-6 -22 -7 -50 -4 -62 5
-20 5 -20 -12 3 -10 13 -30 36 -45 52 -14 16 -23 29 -18 29 4 0 18 11 31 24
21 22 26 23 40 10 14 -12 15 -23 8 -56z m-215 37 c-9 -14 -18 -25 -20 -25 -2
0 2 11 8 25 6 14 15 25 20 25 5 0 1 -11 -8 -25z m61 5 c3 -5 -1 -10 -10 -10
-9 0 -13 5 -10 10 3 6 8 10 10 10 2 0 7 -4 10 -10z m292 -40 c16 -31 3 -45
-34 -35 l-28 7 24 9 c37 14 13 31 -28 19 -24 -6 -31 -6 -28 3 4 12 43 26 67
24 8 -1 20 -13 27 -27z m-267 -10 c0 -5 -11 -10 -24 -10 -13 0 -29 -7 -36 -15
-7 -9 -15 -13 -18 -10 -3 3 3 14 13 25 19 21 65 28 65 10z m61 -37 c13 -16 12
-17 -3 -4 -10 7 -18 15 -18 17 0 8 8 3 21 -13z m-171 0 c0 -5 -10 -19 -21 -33
l-21 -25 18 33 c18 32 24 38 24 25z m295 -14 c0 -8 7 -14 15 -14 17 0 35 -23
26 -32 -13 -13 -54 17 -58 42 -4 16 -1 24 6 22 6 -2 11 -10 11 -18z m-171 2
c3 -5 -10 -11 -29 -13 -27 -3 -32 -1 -23 9 12 15 44 17 52 4z m69 -63 c-7 -17
-9 -14 -9 16 0 27 2 32 9 20 5 -10 5 -24 0 -36z m201 33 c3 -5 -1 -11 -9 -15
-9 -3 -15 0 -15 9 0 16 16 20 24 6z m-360 -81 c8 0 19 -6 25 -14 9 -10 8 -15
-3 -19 -21 -8 -66 30 -66 56 l0 21 16 -22 c8 -12 21 -22 28 -22z m146 -25 c9
5 11 4 6 -3 -4 -7 -24 -12 -44 -12 -37 1 -37 1 -12 15 17 9 27 10 31 3 4 -6
12 -7 19 -3z m76 -60 c9 -8 11 -15 6 -15 -5 0 -15 7 -22 15 -7 8 -9 15 -6 15
4 0 14 -7 22 -15z m109 -55 c22 -42 18 -51 -5 -12 -20 33 -24 42 -15 42 2 0
11 -13 20 -30z m-252 3 c-3 -10 -11 -24 -16 -31 -9 -11 -12 -11 -19 2 -12 21
1 46 23 46 13 0 17 -5 12 -17z m57 -13 c0 -5 -7 -10 -15 -10 -8 0 -15 5 -15
10 0 6 7 10 15 10 8 0 15 -4 15 -10z m168 -31 c-3 -8 -7 -3 -11 10 -4 17 -3
21 5 13 5 -5 8 -16 6 -23z m-289 -47 c-16 -25 -5 -40 16 -22 8 7 15 8 15 2 0
-5 -7 -15 -15 -22 -9 -7 -14 -19 -11 -26 3 -8 0 -11 -9 -7 -24 8 -46 109 -28
127 4 3 15 -2 26 -12 16 -17 17 -22 6 -40z m181 28 c9 -17 8 -20 -10 -20 -11
0 -20 2 -20 4 0 2 -3 11 -6 20 -9 24 23 20 36 -4z m-89 -27 c-8 -15 -10 -15
-11 -2 0 17 10 32 18 25 2 -3 -1 -13 -7 -23z m225 -8 c-6 -22 -9 -25 -22 -14
-13 10 -12 14 2 30 21 24 28 18 20 -16z m-36 -54 c0 -6 -5 -11 -12 -11 -6 0
-20 -7 -30 -17 -29 -26 -31 -9 -1 21 20 20 24 29 15 38 -7 7 -12 16 -12 21 0
5 9 -2 20 -16 11 -14 20 -30 20 -36z m-163 -57 c-3 -3 -12 -4 -19 -1 -8 3 -5
6 6 6 11 1 17 -2 13 -5z m110 -76 c-3 -7 -5 -2 -5 12 0 14 2 19 5 13 2 -7 2
-19 0 -25z m-86 1 c13 -11 18 -17 10 -13 -7 4 -23 8 -35 9 -39 4 -41 5 -26 15
21 14 25 13 51 -11z m-111 -19 c-8 -5 -22 -9 -30 -9 -10 0 -8 3 5 9 27 12 43
12 25 0z m157 -42 c-3 -8 -6 -5 -6 6 -1 11 2 17 5 13 3 -3 4 -12 1 -19z m-143
-68 l21 -25 -27 24 c-16 14 -28 32 -27 40 0 14 1 14 6 1 3 -8 15 -26 27 -40z
m66 25 c-7 -8 -20 -15 -29 -15 -11 1 -8 5 9 15 32 18 35 18 20 0z m196 -50
c24 -37 12 -40 -21 -5 -22 23 -25 30 -12 30 9 0 24 -11 33 -25z m-269 -11 c21
-14 39 -26 40 -28 2 -2 -9 -3 -25 -4 -20 0 -32 7 -44 29 -21 35 -19 36 29 3z
m123 -14 c0 -5 -5 -10 -11 -10 -5 0 -7 5 -4 10 3 6 8 10 11 10 2 0 4 -4 4 -10z
m-20 -82 c0 -4 -15 -11 -32 -16 -25 -6 -34 -15 -39 -38 -4 -16 -7 -22 -8 -13
0 9 -4 29 -7 45 -5 29 -5 29 40 29 25 0 46 -3 46 -7z m-120 -28 c0 -11 -6 -20
-14 -20 -8 0 -24 -8 -36 -18 -17 -14 -22 -28 -22 -63 1 -32 -2 -40 -9 -27 -6
10 -5 35 3 68 11 49 24 62 76 79 1 1 2 -8 2 -19z m250 -15 c7 -8 8 -15 2 -15
-5 0 -15 7 -22 15 -7 8 -8 15 -2 15 5 0 15 -7 22 -15z m-29 -41 c5 -15 8 -29
5 -31 -2 -2 -8 10 -14 26 -13 38 -5 41 9 5z m-248 -36 c-8 -46 -13 -48 -13 -5
0 21 4 37 10 37 5 0 7 -14 3 -32z m174 26 c-3 -3 -12 -4 -19 -1 -8 3 -5 6 6 6
11 1 17 -2 13 -5z m-27 -46 c0 -3 -3 -13 -6 -22 -9 -24 -34 -6 -34 25 0 27 2
28 20 17 11 -7 20 -16 20 -20z m-102 -39 c-3 -8 -7 -3 -11 10 -4 17 -3 21 5
13 5 -5 8 -16 6 -23z m179 6 c-4 -8 -14 -15 -23 -15 -16 0 -16 2 2 19 21 21
29 19 21 -4z m116 -64 c-5 -24 -16 -49 -25 -55 -21 -13 -24 -10 -32 30 -6 26
-3 32 19 42 26 12 25 38 -1 28 -8 -3 -14 -1 -14 4 0 6 6 10 14 10 7 0 20 8 27
17 13 15 14 14 17 -8 1 -13 -1 -44 -5 -68z m-304 6 c9 -24 43 -57 76 -75 20
-11 20 -11 -1 -12 -11 0 -29 10 -40 21 -10 12 -27 24 -38 28 -10 4 -24 24 -31
44 -12 34 -11 36 7 26 10 -6 23 -20 27 -32z m120 8 c16 -5 20 -10 13 -17 -8
-8 -21 -4 -44 11 -32 22 -27 22 31 6z m-38 -42 c13 -15 12 -15 -8 -4 -24 12
-29 21 -14 21 5 0 15 -7 22 -17z m119 3 c0 -8 -7 -21 -15 -30 -13 -12 -20 -13
-41 -4 -24 11 -24 12 -6 19 11 4 23 12 27 18 9 16 35 13 35 -3z m-247 -70 c-3
-13 0 -27 6 -30 19 -12 12 -25 -16 -28 -34 -4 -41 -25 -11 -38 l23 -9 -22 -7
c-13 -3 -23 -14 -23 -24 0 -10 -9 -20 -20 -23 -18 -5 -19 -1 -14 36 10 75 13
84 46 116 17 17 33 31 34 31 0 0 -1 -11 -3 -24z m130 -17 c13 5 35 7 49 4 18
-3 38 2 59 18 19 13 30 17 27 9 -2 -8 -28 -26 -56 -42 -46 -24 -58 -27 -92
-19 -22 5 -40 7 -40 4 0 -3 -7 0 -15 7 -8 7 -15 24 -15 37 l0 25 30 -26 c24
-20 36 -23 53 -17z m148 -76 l34 -17 -35 -7 c-19 -4 -37 -6 -39 -3 -2 2 1 4 7
4 7 0 12 7 12 16 0 10 -5 14 -16 10 -8 -3 -12 -2 -9 4 8 13 6 13 46 -7z m74 6
c11 -17 -1 -21 -15 -4 -8 9 -8 15 -2 15 6 0 14 -5 17 -11z m-245 -15 c0 -24
-45 -82 -73 -96 -33 -16 -35 -16 -39 0 -3 10 -2 26 2 36 6 18 7 18 13 3 3 -9
12 -17 18 -17 8 0 10 13 5 43 -4 32 -3 38 5 25 12 -21 44 -24 36 -4 -3 8 -3
16 0 19 5 6 33 -2 33 -9z m283 -51 c22 -25 31 -68 18 -90 -10 -17 -10 -17 -11
3 0 11 -11 35 -25 54 -14 19 -25 38 -25 42 0 14 26 8 43 -9z m-192 -37 c-9
-18 -17 -27 -19 -20 -4 16 15 54 27 54 5 0 1 -15 -8 -34z m-251 -17 c-7 -11
-14 -18 -17 -15 -8 8 5 36 17 36 7 0 7 -6 0 -21z m193 1 c3 -10 -1 -24 -7 -29
-10 -8 -11 -3 -8 19 5 35 8 37 15 10z m195 -35 c-3 -3 -9 2 -12 12 -6 14 -5
15 5 6 7 -7 10 -15 7 -18z m-288 -25 c0 -5 -4 -10 -9 -10 -6 0 -13 5 -16 10
-3 6 1 10 9 10 9 0 16 -4 16 -10z m212 -2 c-9 -9 -15 -9 -24 0 -9 9 -7 12 12
12 19 0 21 -3 12 -12z m-55 -26 l21 -29 -21 -25 c-14 -17 -36 -28 -63 -32 -35
-5 -44 -2 -64 19 -29 31 -21 49 32 74 59 26 71 26 95 -7z m207 -6 c-3 -8 -13
-17 -22 -21 -13 -5 -13 -2 3 15 21 24 26 25 19 6z m-68 -43 c26 -22 44 -46 44
-58 0 -12 14 -34 30 -50 34 -33 36 -44 15 -85 -13 -26 -17 -27 -43 -18 -24 9
-27 15 -24 44 3 21 0 34 -7 34 -6 0 -11 7 -11 15 0 8 -7 15 -15 15 -8 0 -17
11 -21 25 -7 29 -51 68 -66 59 -5 -4 -2 8 6 25 21 40 38 39 92 -6z m-322 -35
c-11 -5 -29 -28 -40 -51 -11 -25 -27 -43 -39 -45 -31 -6 -43 -22 -23 -33 22
-12 16 -43 -9 -47 -14 -2 -22 4 -27 20 -11 43 -6 62 27 93 17 17 44 46 59 64
24 29 30 31 50 20 22 -12 22 -12 2 -21z m248 -35 c10 -9 18 -24 18 -34 0 -10
12 -27 26 -38 22 -17 24 -23 14 -36 -16 -19 -30 -19 -30 -1 0 8 -17 24 -37 36
-33 19 -46 21 -110 15 -40 -4 -73 -3 -73 0 0 16 56 55 80 56 14 0 34 4 45 9
31 13 47 12 67 -7z m-208 -12 c3 -5 -1 -15 -10 -22 -10 -8 -14 -22 -10 -40 4
-22 1 -29 -14 -34 -10 -3 -22 -15 -25 -26 -4 -10 -10 -19 -14 -19 -5 0 -11
-14 -15 -32 -4 -23 -9 -29 -17 -21 -8 8 -8 17 0 31 6 11 11 32 11 46 0 14 5
28 11 32 6 3 20 26 31 50 18 41 40 56 52 35z m36 -121 c-12 -16 -24 -30 -26
-30 -7 0 5 20 24 43 24 27 25 20 2 -13z m129 6 c18 -19 21 -28 12 -43 -6 -10
-11 -12 -11 -5 0 17 -62 53 -79 47 -11 -5 -12 -3 -1 10 18 22 53 18 79 -9z
m81 -76 c4 -43 1 -56 -18 -76 -10 -11 -26 -31 -36 -46 -10 -15 -26 -26 -37
-25 -17 1 -15 5 11 25 16 13 30 30 30 38 0 8 6 14 14 14 24 0 28 18 9 46 -13
20 -14 29 -5 32 6 2 12 11 12 20 0 25 18 1 20 -28z m89 9 l23 -31 -23 -24
c-37 -39 -54 -32 -54 23 0 43 8 62 26 63 3 0 16 -14 28 -31z m-479 -5 c0 -9
11 -30 25 -46 16 -19 24 -40 23 -58 -2 -31 25 -70 51 -71 9 0 11 -3 5 -5 -30
-13 -63 17 -98 88 -39 79 -45 108 -21 108 8 0 15 -7 15 -16z m240 2 c0 -2 -9
-6 -20 -9 -11 -3 -18 -1 -14 4 5 9 34 13 34 5z m-163 -58 c-3 -8 -6 -5 -6 6
-1 11 2 17 5 13 3 -3 4 -12 1 -19z m220 -10 c-3 -8 -6 -5 -6 6 -1 11 2 17 5
13 3 -3 4 -12 1 -19z m-192 -66 c-9 -9 -25 11 -25 31 1 21 1 21 15 -3 7 -14
12 -27 10 -28z m409 -26 c6 -34 6 -60 0 -66 -5 -5 -10 11 -11 40 -1 27 -7 58
-13 70 -10 18 -9 21 2 18 7 -3 17 -29 22 -62z m-94 39 c-7 -8 -21 -15 -32 -15
-17 0 -18 3 -8 15 7 8 21 15 32 15 17 0 18 -3 8 -15z m-210 -55 c12 -8 11 -10
-5 -9 -11 1 -31 5 -45 9 -24 8 -24 8 5 9 17 0 37 -4 45 -9z m-220 -44 c-11
-19 -20 -50 -20 -70 0 -20 -4 -36 -10 -36 -5 0 -7 14 -5 30 3 17 7 44 10 62 6
36 23 60 36 52 6 -3 1 -20 -11 -38z m265 -6 c-3 -5 -12 -10 -18 -10 -7 0 -6 4
3 10 19 12 23 12 15 0z m187 -29 c24 -16 59 -39 79 -50 21 -11 47 -36 59 -56
19 -31 20 -38 9 -70 -9 -23 -16 -32 -23 -25 -6 6 -33 10 -60 10 -68 0 -78 8
-78 64 0 25 -4 48 -8 51 -11 7 -30 -27 -30 -54 0 -26 -10 -26 -44 0 -18 14
-24 25 -18 33 30 38 16 86 -25 86 l-26 0 24 26 c20 21 30 25 61 21 20 -3 56
-19 80 -36z m-309 -49 c-15 -16 -46 -34 -68 -40 -23 -6 -59 -27 -80 -45 -22
-19 -55 -39 -72 -45 l-33 -11 15 29 c9 18 26 31 46 35 17 4 48 22 69 41 47 43
88 64 123 64 l28 0 -28 -28z m162 -36 c-13 -30 -13 -41 -4 -54 6 -10 -4 -1
-23 19 -19 20 -38 42 -42 50 -4 11 -7 11 -12 2 -3 -7 -17 -13 -32 -13 -21 0
-23 3 -14 13 10 9 126 27 140 21 1 0 -5 -18 -13 -38z m-90 -40 c64 -27 43 -38
-59 -30 -76 5 -100 4 -127 -10 l-34 -16 29 24 c53 44 130 57 191 32z m188 -79
c2 -7 0 -37 -6 -68 -9 -50 -8 -61 10 -90 26 -42 22 -53 -29 -81 -27 -15 -47
-36 -59 -63 l-18 -39 -10 27 c-17 43 -13 68 9 74 11 3 20 10 20 17 0 6 6 23
14 38 34 64 52 134 46 170 -5 27 -3 35 6 31 7 -2 14 -10 17 -16z m-434 -16
c-17 -23 -20 -38 -16 -68 5 -28 2 -46 -10 -63 -15 -22 -15 -24 6 -42 13 -10
29 -18 35 -18 7 0 35 -16 62 -35 56 -40 50 -43 -31 -15 -32 11 -74 20 -94 20
-20 0 -52 10 -71 21 l-34 21 26 23 c33 29 48 57 48 92 0 38 19 63 61 78 19 7
35 13 37 14 1 0 -7 -12 -19 -28z m347 14 c15 -10 24 -25 24 -42 0 -37 -22 -94
-35 -90 -5 2 -18 28 -28 58 -18 57 -39 81 -63 72 -8 -3 -14 -1 -14 4 0 16 90
15 116 -2z m168 -37 c29 -13 54 -47 66 -89 8 -26 4 -34 -46 -80 -29 -29 -56
-60 -59 -70 -6 -17 -94 -83 -102 -76 -2 2 2 17 7 33 6 18 27 40 55 56 53 32
65 65 42 114 -12 24 -15 47 -10 79 6 49 9 51 47 33z m112 -14 c44 -26 44 -26
44 -84 0 -32 7 -75 16 -96 21 -50 13 -97 -27 -152 -18 -25 -35 -59 -38 -76 -6
-29 -9 -31 -58 -34 -53 -3 -133 13 -133 26 0 11 55 42 73 42 9 0 29 14 46 31
24 24 31 39 31 70 0 26 10 57 26 85 31 52 29 84 -9 163 -13 28 -22 51 -20 51
3 0 24 -12 49 -26z m-448 -9 c5 -25 -18 -65 -39 -65 -14 0 -16 6 -9 34 4 18
11 39 15 45 10 16 29 8 33 -14z m89 -20 c6 -19 10 -35 8 -35 -2 0 -12 16 -24
35 -14 25 -17 35 -7 35 7 0 17 -16 23 -35z m-180 -7 c-3 -8 -6 -5 -6 6 -1 11
2 17 5 13 3 -3 4 -12 1 -19z m213 -108 c0 -5 -14 -19 -31 -31 l-32 -22 -93 48
c-94 48 -116 68 -51 44 45 -16 85 -5 104 29 l16 28 44 -43 c23 -24 43 -48 43
-53z m259 -57 c-10 -21 -19 -54 -19 -74 0 -39 -20 -60 -72 -72 -14 -4 -44 -26
-67 -49 l-40 -43 -88 2 c-95 3 -204 33 -242 67 -20 18 -29 65 -15 79 4 3 25
-9 47 -29 23 -19 58 -40 79 -46 30 -9 37 -15 32 -30 -7 -22 9 -24 27 -2 21 26
66 44 107 44 54 0 153 52 188 98 25 35 75 92 80 92 1 0 -7 -17 -17 -37z m-618
-24 c53 -18 61 -28 44 -52 -24 -34 -18 -73 15 -111 43 -48 176 -91 249 -81 32
4 51 3 51 -3 0 -16 -19 -18 -130 -16 -104 2 -106 2 -190 47 l-85 45 -7 74 c-7
73 -3 108 11 108 4 0 23 -5 42 -11z m322 -30 c-5 -5 -18 -7 -28 -3 -16 6 -15
8 6 20 25 13 40 1 22 -17z m-154 -2 c47 -2 44 -17 -3 -17 -20 0 -44 9 -57 21
-23 19 -23 20 -2 9 12 -6 40 -11 62 -13z m151 -39 c53 3 53 -11 0 -24 -68 -16
-91 -17 -127 -3 l-28 11 40 13 c22 7 51 11 65 7 14 -3 36 -5 50 -4z m460 -102
c0 -25 -4 -48 -10 -51 -5 -3 -10 3 -10 14 0 11 -4 23 -10 26 -16 10 -12 25 6
25 10 0 14 6 10 15 -3 8 -1 15 4 15 6 0 10 -20 10 -44z m-841 -40 c-2 -2 -17
-6 -34 -10 -22 -5 -26 -4 -15 4 14 9 59 15 49 6z m872 -47 c-9 -22 -10 -22
-10 -3 -1 11 2 24 6 27 12 12 14 0 4 -24z m-345 -26 c-2 -2 -13 1 -25 9 -18
11 -23 10 -40 -9 -22 -23 -59 -39 -68 -29 -4 3 1 6 10 6 8 0 28 10 44 23 54
42 67 47 76 24 4 -11 6 -22 3 -24z m75 10 c6 -15 16 -31 22 -35 8 -5 4 -8 -9
-8 -21 0 -54 37 -54 60 0 22 31 9 41 -17z m66 2 c9 -25 -2 -27 -22 -5 -17 18
-17 20 -1 20 9 0 19 -7 23 -15z m54 -18 l-23 -22 17 28 c10 15 20 25 23 22 3
-3 -5 -16 -17 -28z m-784 6 c1 -10 5 -33 9 -51 5 -27 4 -31 -9 -26 -21 8 -32
61 -17 79 15 19 15 19 17 -2z m138 -3 c27 -30 13 -33 -25 -5 -28 21 -30 25
-13 25 11 0 28 -9 38 -20z m752 -6 c15 -40 -47 -102 -89 -88 l-23 7 22 8 c12
4 31 26 43 49 22 42 37 50 47 24z m-830 -16 c-3 -8 -6 -5 -6 6 -1 11 2 17 5
13 3 -3 4 -12 1 -19z m130 -20 c-3 -8 -6 -5 -6 6 -1 11 2 17 5 13 3 -3 4 -12
1 -19z m214 -7 l24 -20 -49 -22 c-46 -20 -51 -20 -77 -5 -15 9 -32 16 -38 16
-17 0 -13 -21 6 -35 16 -12 16 -14 -2 -31 -23 -23 -54 -92 -55 -121 0 -19 -5
-21 -42 -20 l-43 2 -5 47 c-3 27 -11 53 -17 59 -20 20 5 56 44 64 18 3 66 24
106 45 81 44 114 49 148 21z m174 9 c3 -5 1 -10 -4 -10 -6 0 -11 5 -11 10 0 6
2 10 4 10 3 0 8 -4 11 -10z m-42 -41 c13 -15 25 -19 43 -15 13 4 34 1 47 -6
20 -12 17 -13 -38 -20 -33 -4 -72 -9 -87 -11 -34 -5 -74 -31 -88 -58 -11 -20
-13 -20 -30 -4 -31 28 -48 13 -43 -37 6 -51 -13 -111 -27 -88 -14 22 -28 1
-32 -45 -3 -40 -3 -40 -17 -15 -21 36 -17 118 7 165 17 34 35 48 128 96 60 31
111 57 114 58 3 0 14 -8 23 -20z m216 -44 c35 -33 60 -47 93 -54 49 -9 102
-41 118 -70 5 -10 10 -70 10 -132 1 -63 2 -135 3 -161 1 -37 -3 -52 -19 -69
-20 -20 -23 -20 -52 -5 l-32 16 17 36 c15 30 15 39 4 67 -24 57 -22 96 5 142
23 41 24 46 11 78 -21 49 -55 77 -94 77 -35 0 -102 29 -119 52 -6 7 -15 25
-22 41 -10 24 -10 27 9 27 11 0 42 -20 68 -45z m-43 -80 c76 -51 73 -56 -8
-17 -95 45 -117 44 -223 -6 -5 -3 -5 1 2 8 16 17 111 49 147 50 17 0 51 -15
82 -35z m148 -57 c21 -30 20 -57 -4 -93 -11 -16 -20 -44 -20 -61 0 -24 -8 -38
-34 -58 -19 -14 -38 -35 -41 -47 -5 -16 -12 -19 -31 -15 -18 5 -27 0 -40 -19
-9 -14 -25 -25 -36 -25 -17 0 -16 3 10 29 16 17 49 41 73 54 24 14 46 33 49
43 3 11 13 31 24 47 16 23 17 38 12 97 -6 59 -5 70 8 70 8 0 22 -10 30 -22z
m-774 -11 c0 -31 40 -57 88 -58 l47 -1 -37 -7 c-79 -16 -116 -67 -84 -116 14
-22 15 -25 1 -25 -22 0 -18 -21 5 -27 17 -5 20 -14 20 -70 0 -77 19 -119 63
-138 18 -8 26 -14 20 -15 -7 0 -30 -16 -52 -35 -51 -46 -94 -48 -116 -5 -8 16
-15 35 -15 42 0 7 -12 31 -27 53 -26 36 -28 48 -28 130 0 70 -4 96 -18 115
-17 25 -23 76 -9 96 4 6 27 25 51 42 45 33 91 42 91 19z m323 -17 c3 -11 1
-18 -4 -14 -5 3 -9 12 -9 20 0 20 7 17 13 -6z m61 -7 c-10 -40 -14 -41 -14 -5
0 18 5 32 10 32 6 0 8 -11 4 -27z m48 -10 c-3 -16 -7 -22 -10 -15 -4 13 4 42
11 42 2 0 2 -12 -1 -27z m199 -6 c4 -15 3 -27 -2 -27 -5 0 -9 8 -9 18 0 10 -6
24 -12 31 -11 11 -10 13 1 9 8 -2 18 -16 22 -31z m-326 -64 c22 -74 72 -127
115 -121 17 3 30 3 30 2 0 -6 -89 -44 -103 -44 -8 0 -28 5 -45 11 -26 9 -34
19 -48 67 -16 56 -16 58 6 100 13 23 24 42 26 42 1 0 10 -26 19 -57z m42 5
c-3 -8 -6 -5 -6 6 -1 11 2 17 5 13 3 -3 4 -12 1 -19z m213 -8 c-26 -23 -44
-30 -76 -30 -47 0 -74 8 -74 21 0 5 31 8 70 7 55 -2 74 1 87 15 10 9 20 17 23
17 3 -1 -11 -14 -30 -30z m130 -9 c-6 -12 -18 -21 -28 -21 -13 0 -12 3 6 16
12 8 22 23 23 32 0 10 3 12 5 5 3 -7 0 -21 -6 -32z m-552 -3 c7 -7 8 -17 2
-28 -7 -13 0 -31 25 -70 43 -67 84 -95 165 -115 36 -9 78 -25 93 -37 16 -11
35 -17 43 -14 22 9 16 -12 -8 -28 -13 -8 -46 -22 -74 -32 -49 -17 -54 -17 -90
-1 -22 10 -62 19 -90 22 -106 9 -129 33 -126 132 2 47 -3 73 -19 105 l-21 42
22 18 c25 21 61 23 78 6z m292 -57 c23 -9 24 -10 3 -10 -35 -1 -53 10 -70 43
l-15 31 28 -27 c16 -15 40 -31 54 -37z m170 34 c-7 -8 -18 -15 -24 -15 -6 0
-2 7 8 15 25 19 32 19 16 0z m174 -111 c-1 -19 -15 -43 -40 -69 -22 -22 -46
-54 -55 -71 -11 -21 -28 -34 -56 -42 -23 -7 -54 -27 -70 -45 -30 -34 -72 -67
-85 -67 -8 0 -48 59 -48 72 0 3 15 12 34 18 39 13 66 47 66 85 0 23 4 25 45
25 34 0 48 5 57 20 7 11 22 20 34 20 13 0 36 17 59 45 41 51 61 53 59 9z
m-220 5 c-33 -37 -114 -66 -148 -53 -20 8 101 72 138 73 29 1 29 1 10 -20z
m-74 -109 c0 -5 -7 -7 -15 -4 -8 4 -15 8 -15 10 0 2 7 4 15 4 8 0 15 -4 15
-10z m333 -38 c33 -30 0 -154 -46 -171 -12 -4 -47 -16 -77 -26 -30 -9 -75 -30
-101 -45 -98 -60 -119 -54 -166 47 -19 41 -32 77 -29 81 3 3 6 0 6 -6 0 -6 12
-24 26 -41 37 -44 68 -41 120 13 23 24 51 49 62 55 26 14 68 14 94 0 34 -18
44 5 12 30 -15 11 -22 21 -16 21 5 0 17 16 27 36 15 31 20 35 43 29 15 -4 35
-14 45 -23z m-536 -87 c19 -8 46 -15 59 -15 19 0 24 -5 24 -26 0 -15 10 -47
22 -71 l23 -45 -27 -23 c-25 -22 -35 -23 -134 -21 -98 3 -109 5 -126 26 -10
12 -18 35 -18 50 0 16 -4 40 -9 54 -9 22 -6 27 37 55 53 34 94 39 149 16z
m596 -74 c13 -27 13 -30 -7 -38 -37 -17 -47 -6 -28 32 9 19 18 35 19 35 1 0 8
-13 16 -29z m-901 -28 c27 -24 22 -35 -12 -28 -19 4 -30 3 -30 -4 0 -13 -10
-14 -29 -2 -12 8 -11 13 10 30 30 25 37 26 61 4z m78 -3 c0 -5 -6 -10 -14 -10
-8 0 -18 5 -21 10 -3 6 3 10 14 10 12 0 21 -4 21 -10z m21 -86 c6 -7 -7 -18
-36 -33 -39 -19 -49 -21 -84 -10 -42 12 -45 31 -9 50 16 8 19 7 16 -7 -5 -30
19 -26 32 6 14 35 31 40 27 9 -4 -36 21 -33 29 3 6 25 9 28 12 13 2 -11 8 -25
13 -31z m702 34 c4 -10 8 -9 16 2 12 17 17 13 26 -20 6 -25 5 -25 -54 -23 -36
1 -70 8 -83 17 -15 11 -18 16 -8 17 25 1 52 7 58 13 10 11 40 6 45 -6z m-885
-19 c-7 -5 -19 -9 -27 -9 -11 0 -11 3 -1 14 6 8 18 12 27 9 12 -5 12 -7 1 -14z
m1001 -12 c9 -12 7 -14 -13 -14 -17 0 -25 6 -29 23 -3 19 -1 22 13 14 9 -5 22
-15 29 -23z m-459 -29 c0 -7 -11 -26 -23 -42 -23 -28 -25 -29 -47 -13 l-23 16
26 6 c14 4 33 15 43 26 20 22 24 23 24 7z m198 -4 c17 -18 -2 -27 -39 -19 -27
6 -28 8 -13 19 21 16 37 16 52 0z m-450 -57 l22 -21 -24 -25 c-14 -14 -29 -38
-35 -54 -14 -35 -36 -44 -75 -28 -52 21 -66 24 -66 13 0 -6 13 -19 30 -28 28
-17 28 -19 13 -36 -17 -19 -63 -25 -63 -8 0 5 -11 17 -24 25 -19 13 -29 14
-45 6 -17 -9 -22 -8 -32 10 -16 31 13 67 93 109 36 19 72 40 79 46 35 29 91
25 127 -9z m77 23 c-3 -5 -12 -10 -20 -10 -8 0 -17 5 -20 10 -4 6 5 10 20 10
15 0 24 -4 20 -10z m290 -15 l30 -12 -38 -8 c-45 -9 -87 -40 -87 -64 0 -10
-11 -31 -25 -47 -22 -24 -25 -37 -23 -81 3 -48 2 -50 -14 -37 -14 13 -15 28
-11 92 6 74 8 79 52 129 48 55 50 56 116 28z m320 -58 c43 -36 45 -40 45 -92
0 -61 -8 -71 -38 -49 -20 14 -20 15 -4 44 26 46 6 75 -94 136 -16 10 -14 11
13 5 18 -3 53 -23 78 -44z m-167 26 c26 -4 30 -8 21 -19 -8 -9 -33 -14 -75
-14 -74 0 -109 -11 -147 -48 l-28 -27 15 35 c11 28 23 38 55 47 22 6 51 19 63
28 14 9 31 13 43 9 11 -3 35 -8 53 -11z m-375 -2 c19 -8 23 -15 20 -35 -5 -24
-8 -25 -47 -20 -22 4 -42 8 -44 9 -2 2 -17 -1 -33 -5 -16 -5 -29 -7 -29 -5 0
7 85 64 97 65 6 0 23 -4 36 -9z m475 -41 c23 -14 32 -27 32 -46 l0 -26 -25 31
c-14 16 -35 33 -46 36 -10 4 -17 11 -14 16 9 13 16 11 53 -11z m-218 -43 c-8
-7 -28 -19 -45 -25 l-30 -12 30 25 c32 26 73 38 45 12z m170 3 c11 -7 8 -9
-15 -9 -16 1 -41 5 -55 9 -22 7 -20 8 15 9 22 0 47 -4 55 -9z m-445 -9 c29 -6
30 -8 30 -66 0 -33 4 -69 9 -80 l8 -20 -12 20 c-20 33 -42 45 -81 45 -26 0
-48 8 -71 27 -18 15 -35 28 -37 30 -8 6 33 33 64 42 35 11 49 11 90 2z m280
-66 c-19 -22 -35 -44 -36 -49 -1 -14 -17 24 -18 42 -1 7 14 19 33 27 19 8 38
20 42 27 5 8 9 8 11 2 2 -6 -12 -28 -32 -49z m-90 -30 c-1 -30 -4 -57 -8 -61
-10 -10 -38 16 -49 46 -8 21 -5 28 17 47 14 13 29 23 33 23 4 0 7 -25 7 -55z
m-326 -10 c35 -28 53 -35 86 -35 48 0 55 -9 55 -67 0 -34 27 -93 42 -93 4 0 8
-5 8 -11 0 -18 -62 -1 -85 23 -11 11 -14 18 -7 14 20 -12 13 14 -12 42 -13 15
-42 48 -66 74 -23 26 -57 52 -76 58 -19 7 -32 16 -29 21 11 18 40 9 84 -26z
m541 10 c21 -22 22 -25 5 -25 -10 0 -27 -7 -37 -17 -13 -12 -18 -13 -18 -3 0
7 -8 22 -17 32 -15 17 -15 20 -3 28 25 16 45 11 70 -15z m177 -67 c-15 -11
-27 -27 -27 -36 0 -16 -28 -52 -40 -52 -11 0 2 64 16 81 13 15 10 49 -5 49 -3
0 -19 11 -36 24 -25 20 -17 19 45 -11 l74 -35 -27 -20z m-928 58 c13 -14 33
-27 45 -29 12 -2 -1 -7 -29 -11 -72 -11 -81 -14 -67 -28 8 -8 9 -15 1 -25 -14
-16 -29 -17 -29 0 0 16 43 117 51 117 3 0 16 -11 28 -24z m641 -76 c8 -45 2
-50 -25 -20 -16 18 -17 23 -5 45 16 31 20 27 30 -25z m-439 3 l33 -38 -38 -3
c-21 -2 -51 1 -68 7 -26 9 -32 7 -54 -16 -28 -30 -29 -28 -9 20 31 74 86 86
136 30z m559 8 c0 -5 -7 -14 -15 -21 -16 -14 -18 -10 -9 14 6 17 24 22 24 7z
m-864 -133 c-7 -26 -6 -56 2 -97 7 -33 10 -72 6 -86 -6 -26 -6 -26 -37 16 -26
35 -31 51 -31 94 1 55 20 147 37 180 9 18 12 15 21 -25 8 -30 8 -57 2 -82z
m133 100 c-6 -13 -21 -36 -33 -53 -23 -31 -52 -95 -59 -130 -3 -11 -5 4 -6 33
-1 64 20 119 57 149 37 31 57 31 41 1z m454 6 c25 -6 28 -11 27 -43 -3 -56 -1
-58 25 -26 21 26 25 27 31 11 4 -9 2 -22 -5 -29 -16 -16 -13 -45 7 -56 14 -9
12 -10 -14 -11 -25 0 -42 11 -87 59 -32 33 -57 64 -57 69 0 25 14 42 29 38 9
-3 29 -8 44 -12z m-308 -64 c13 -5 2 -8 -32 -8 -42 -1 -51 1 -47 13 6 15 28
13 79 -5z m565 -28 c-13 -5 -78 17 -85 28 -3 4 17 1 44 -8 28 -10 46 -18 41
-20z m-470 -17 c7 -20 9 -42 6 -50 -3 -8 -36 -35 -75 -59 -38 -25 -72 -49 -76
-55 -3 -6 -10 -9 -15 -6 -4 3 7 20 26 39 39 39 42 58 14 104 l-20 32 33 0 c17
1 43 7 57 15 35 20 37 19 50 -20z m360 3 c0 -5 -7 -8 -15 -8 -17 0 -18 2 -9
25 5 13 8 14 15 3 5 -7 9 -16 9 -20z m215 2 c-27 -12 -43 -12 -25 0 8 5 22 9
30 9 10 0 8 -3 -5 -9z m96 -16 c8 -23 5 -33 -17 -66 -29 -42 -44 -55 -44 -39
0 5 12 23 26 41 20 24 25 37 20 60 -7 37 1 39 15 4z m-165 -9 c-11 -8 -31 -15
-45 -14 -21 0 -19 3 14 14 52 17 53 17 31 0z m-666 -15 c20 -20 27 -60 11 -60
-12 0 -71 59 -71 71 0 16 40 9 60 -11z m230 -40 c-17 -32 -26 -30 -22 6 3 28
7 32 18 23 10 -8 11 -16 4 -29z m64 3 c-19 -86 -33 -117 -64 -133 -25 -13 -13
59 15 90 12 14 26 35 30 48 9 32 27 27 19 -5z m81 7 c10 -11 24 -20 30 -20 9
0 7 -11 -6 -37 -10 -21 -19 -43 -19 -50 0 -13 -95 -111 -135 -139 -28 -20 -59
-17 -80 6 -21 24 -23 22 36 43 25 10 58 31 74 47 22 23 31 27 42 18 19 -16 30
-1 15 22 -15 24 -15 58 -1 99 13 36 19 38 44 11z m145 -4 c0 -2 -7 -7 -16 -10
-8 -3 -12 -2 -9 4 6 10 25 14 25 6z m-575 -26 c10 -11 16 -20 13 -20 -3 0 -13
9 -23 20 -10 11 -16 20 -13 20 3 0 13 -9 23 -20z m769 -13 c20 -27 20 -29 4
-41 -10 -7 -18 -19 -18 -27 0 -8 -3 -10 -8 -4 -20 28 -42 37 -57 25 -8 -7 -15
-9 -15 -5 0 4 -6 3 -12 -2 -7 -6 -31 -13 -52 -16 -21 -4 -49 -16 -62 -28 -28
-26 -30 -22 -9 17 8 16 15 36 15 45 0 26 28 43 68 41 20 -1 51 5 67 13 40 18
54 15 79 -18z m-799 -7 c10 -11 16 -20 13 -20 -3 0 -13 9 -23 20 -10 11 -16
20 -13 20 3 0 13 -9 23 -20z m-34 -74 c13 -9 32 -16 41 -16 10 0 23 -11 27
-24 15 -37 37 -39 75 -6 42 38 108 67 100 46 -3 -8 -21 -27 -40 -41 -19 -14
-41 -40 -50 -58 -34 -68 -97 -90 -107 -38 -4 18 -23 43 -51 66 -45 36 -46 39
-45 92 2 55 2 55 14 26 7 -17 23 -38 36 -47z m569 46 c0 -10 -11 -33 -24 -51
-13 -18 -34 -57 -46 -86 -19 -48 -30 -59 -112 -114 l-90 -60 -43 24 c-23 14
-47 25 -54 25 -7 0 -23 8 -36 19 l-24 18 40 39 40 39 20 -27 c11 -15 35 -32
53 -38 48 -15 86 3 168 82 49 48 69 75 77 106 12 42 31 57 31 24z m370 -51
c13 -27 16 -41 8 -43 -19 -7 -98 26 -98 39 0 10 31 29 67 42 2 1 12 -17 23
-38z m-637 7 c-6 -26 -31 -58 -45 -58 -4 0 4 18 18 40 31 46 34 48 27 18z
m482 -24 c0 -12 -8 -20 -22 -22 -35 -5 -81 -58 -88 -100 -4 -20 -11 -49 -17
-65 l-11 -27 -14 27 c-10 19 -12 44 -8 83 11 99 11 100 53 100 20 0 48 7 62
14 32 18 45 15 45 -10z m-198 -57 c18 -38 -4 -92 -45 -111 -42 -21 -58 -12
-34 19 10 13 27 44 36 69 20 52 28 56 43 23z m324 -5 c37 -39 65 -106 59 -142
l-6 -35 -8 48 c-4 27 -16 55 -25 64 -11 9 -16 23 -14 34 4 16 0 18 -32 17 -34
-1 -54 12 -55 35 0 14 64 -3 81 -21z m79 -18 c0 -13 -4 -24 -9 -24 -13 0 -24
37 -16 50 10 16 25 1 25 -26z m-182 -13 c10 -6 5 -12 -18 -21 -17 -7 -37 -21
-44 -32 -9 -12 -16 -16 -21 -9 -22 36 46 86 83 62z m-869 -71 c9 -28 8 -32
-15 -40 -28 -11 -28 -37 0 -32 29 5 17 -15 -13 -21 -17 -4 -31 -14 -34 -24 -4
-17 -4 -17 -12 0 -10 24 14 105 38 128 12 10 22 19 23 19 1 0 7 -14 13 -30z
m67 -17 c-14 -14 -23 4 -13 27 l10 25 5 -23 c2 -13 1 -26 -2 -29z m730 -70
c-5 -5 -36 50 -36 64 0 4 9 -7 21 -26 11 -18 18 -35 15 -38z m71 30 c-3 -10
-5 -4 -5 12 0 17 2 24 5 18 2 -7 2 -21 0 -30z m-670 1 c-1 -1 -24 0 -52 4 -40
4 -45 7 -25 12 20 5 85 -9 77 -16z m333 10 c0 -11 -5 -14 -16 -10 -9 3 -18 6
-20 6 -3 0 -2 5 1 10 10 16 35 12 35 -6z m152 -19 c11 -14 29 -25 40 -25 14 0
18 -5 14 -15 -3 -8 1 -21 9 -29 8 -8 15 -19 15 -24 0 -6 12 -20 28 -31 15 -11
21 -21 14 -21 -8 0 -25 9 -39 20 -14 11 -32 20 -40 20 -8 0 -19 13 -24 28 -5
16 -23 39 -40 51 -24 18 -28 25 -18 37 15 19 18 18 41 -11z m-82 -3 c0 -10 16
-33 36 -50 31 -27 35 -36 29 -62 -5 -23 -3 -30 8 -30 9 0 17 5 19 10 2 7 10 5
22 -3 40 -29 -7 -61 -59 -41 -9 4 -27 30 -40 58 -13 28 -32 63 -41 78 -15 22
-16 29 -5 42 18 21 31 20 31 -2z m-149 -26 c-14 -16 -6 -40 10 -31 12 8 11 1
-3 -30 -15 -33 -22 -32 -46 9 l-21 35 32 20 c34 22 47 20 28 -3z m-366 -6
c-32 -21 -38 -21 -29 4 3 9 17 16 33 16 l26 0 -30 -20z m95 -41 c0 -29 -1 -29
-24 -14 -21 14 -22 19 -12 40 14 30 36 15 36 -26z m79 21 c11 -24 11 -24 -3
-6 -9 11 -16 24 -16 30 0 12 5 7 19 -24z m276 -6 c15 -19 25 -37 23 -40 -8 -8
-58 44 -58 61 0 22 4 19 35 -21z m505 23 c0 -2 -11 -18 -25 -37 -26 -36 -33
-34 -14 3 13 23 39 46 39 34z m-746 -86 c-16 -15 -16 -15 -9 4 4 11 11 34 14
50 l6 30 3 -34 c2 -22 -2 -39 -14 -50z m-294 55 c0 -3 -4 -8 -10 -11 -5 -3
-10 -1 -10 4 0 6 5 11 10 11 6 0 10 -2 10 -4z m810 -16 c6 -11 8 -20 6 -20 -3
0 -10 9 -16 20 -6 11 -8 20 -6 20 3 0 10 -9 16 -20z m150 6 c-8 -8 -31 -17
-50 -20 l-35 -5 37 12 c20 7 40 15 44 20 4 4 10 7 13 7 3 0 -1 -6 -9 -14z
m-604 -13 c-3 -10 -8 -34 -11 -53 -5 -29 -13 -38 -46 -52 l-39 -17 0 24 c0 17
4 23 15 19 20 -8 65 40 65 71 0 14 5 25 11 25 6 0 8 -8 5 -17z m-318 -29 c-3
-14 -5 -12 -10 9 -3 19 -2 25 4 19 6 -6 8 -18 6 -28z m462 -33 c0 -24 0 -24
-18 -5 -15 14 -16 23 -8 36 13 21 26 5 26 -31z m365 29 c3 -5 2 -10 -4 -10 -5
0 -13 5 -16 10 -3 6 -2 10 4 10 5 0 13 -4 16 -10z m80 -10 c-3 -5 -16 -10 -28
-10 -18 0 -19 2 -7 10 20 13 43 13 35 0z m-727 -95 c-2 -1 -25 1 -53 4 -45 6
-47 8 -25 16 14 5 34 9 45 9 15 1 21 10 25 36 4 32 5 31 8 -14 2 -26 2 -49 0
-51z m832 39 c10 -46 9 -48 -25 -40 -26 7 -35 26 -11 26 10 0 14 10 12 36 -4
45 12 31 24 -22z m-1035 26 c16 -17 16 -20 3 -15 -9 4 -19 13 -22 21 -7 19 -2
18 19 -6z m956 -14 c-18 -19 -35 -24 -106 -30 -46 -3 -90 -3 -99 0 -22 9 -8
36 16 28 11 -3 33 0 50 7 24 10 37 10 65 0 32 -12 38 -11 62 7 34 25 41 19 12
-12z m-1011 -7 c0 -11 7 -19 16 -19 14 0 14 -3 4 -15 -15 -18 -61 -20 -56 -2
3 6 7 25 10 40 7 30 26 28 26 -4z m73 -96 c-33 -17 -33 -17 -33 12 0 18 4 23
15 19 9 -4 15 -1 15 7 0 8 6 5 14 -6 12 -17 11 -20 -11 -32z m950 10 c5 -27
-1 -28 -39 -8 -16 8 -37 15 -46 15 -9 0 -20 5 -23 11 -5 7 11 9 48 7 49 -2 56
-6 60 -25z m-1013 -12 c0 -10 -9 -21 -20 -24 -18 -5 -18 -4 -3 19 19 29 23 30
23 5z m1070 -11 c8 -15 7 -17 -10 -13 -11 3 -20 14 -20 25 0 22 15 16 30 -12z"/>
<path d="M5068 10079 c-555 -69 -995 -457 -1124 -994 -38 -157 -21 -464 41
-748 25 -114 85 -322 104 -362 6 -11 22 -51 37 -90 38 -100 171 -364 237 -472
85 -137 210 -308 317 -434 177 -208 380 -383 425 -365 30 11 16 281 -21 412
-29 104 -131 237 -230 303 l-44 29 37 7 c156 28 322 270 399 580 l18 70 9 -35
c62 -243 148 -423 253 -524 51 -50 134 -96 173 -96 23 0 20 -4 -24 -34 -66
-44 -153 -139 -189 -206 -50 -92 -68 -178 -73 -352 -5 -149 -4 -158 13 -158
87 1 397 308 610 605 280 390 477 861 538 1285 42 293 42 452 0 625 -59 241
-229 504 -433 667 -237 189 -508 283 -843 293 -84 2 -187 0 -230 -6z m432
-105 c176 -29 351 -99 504 -201 125 -83 226 -184 309 -309 138 -208 198 -394
198 -608 -1 -470 -176 -1008 -479 -1476 -139 -214 -373 -494 -496 -593 l-38
-31 7 65 c19 181 64 280 169 379 38 36 96 91 130 123 l61 57 -24 18 c-13 11
-53 28 -90 40 -193 63 -256 156 -402 602 -53 161 -67 195 -83 195 -22 0 -56
-82 -113 -270 -72 -240 -164 -410 -250 -465 -26 -16 -89 -46 -140 -66 -51 -20
-95 -40 -98 -44 -3 -5 36 -46 87 -92 149 -133 175 -163 212 -240 34 -73 49
-131 62 -243 l7 -59 -49 41 c-137 116 -339 359 -486 583 -280 429 -447 910
-477 1371 -11 168 -1 268 40 397 118 369 378 636 751 772 73 27 225 61 328 74
62 8 263 -3 360 -20z"/>
</g>
</svg>
